Coordinates
version=1
nRows=6
nColumns=46
inDegrees=yes

Units are S.I. units (second, meters, Newtons, ...)
Angles are in degrees.

endheader
time	pelvis_tilt	pelvis_list	pelvis_rotation	pelvis_tx	pelvis_ty	pelvis_tz	bb_angle	bb_tx	bb_ty	bb_tz	hip_flexion_r	hip_adduction_r	hip_rotation_r	knee_angle_r	knee_angle_r_beta	ankle_angle_r	subtalar_angle_r	mtp_angle_r	crank_angle_r	hip_flexion_l	hip_adduction_l	hip_rotation_l	knee_angle_l	knee_angle_l_beta	ankle_angle_l	subtalar_angle_l	mtp_angle_l	crank_angle_l	lumbar_extension	lumbar_bending	lumbar_rotation	arm_flex_r	arm_add_r	arm_rot_r	elbow_flex_r	pro_sup_r	wrist_flex_r	wrist_dev_r	arm_flex_l	arm_add_l	arm_rot_l	elbow_flex_l	pro_sup_l	wrist_flex_l	wrist_dev_l
      0.00000000	     -7.60513718	     -3.44973381	     -5.21324141	      0.17866940	      1.04741332	     -0.31742473	      0.00000000	      0.50000000	      0.00000000	      0.25000000	     78.59778307	      2.57048720	      2.81959161	     91.26889023	      1.59294264	     12.35033114	     -9.55059697	      0.00000000	      0.00000000	     46.76826388	    -11.85448634	     -0.40255107	     75.23999136	      1.31318558	    -19.37831206	    -14.37660565	      0.00000000	      0.00000000	    -58.57570269	     -2.95910072	      6.79485849	     89.54395242	     -4.55164782	     35.74111383	     21.48267890	     22.80027545	      0.00000000	      0.00000000	     89.06389541	     -0.81079180	     33.33636999	     22.73146771	     25.47292074	      0.00000000	      0.00000000
      0.00500000	     -7.58114986	     -3.36300711	     -5.20459164	      0.17867790	      1.04749234	     -0.31748415	      0.00000000	      0.50000000	      0.00000000	      0.25000000	     78.58517413	      2.51624864	      2.88876667	     91.28892730	      1.59329235	     12.42569700	     -9.52383777	      0.00000000	      0.00000000	     46.72247109	    -11.75976301	     -0.47070473	     75.18470485	      1.31222065	    -19.51074605	    -14.50830779	      0.00000000	      0.00000000	    -58.61534268	     -3.01380495	      6.65006548	     89.54034232	     -4.39832816	     34.88745592	     21.47812823	     23.60888282	      0.00000000	      0.00000000	     89.06441815	     -0.79356760	     32.65000183	     22.70577900	     26.32175889	      0.00000000	      0.00000000
      0.01000000	     -7.59988321	     -3.37444246	     -5.21922861	      0.17866890	      1.04743753	     -0.31743690	      0.00000000	      0.50000000	      0.00000000	      0.25000000	     78.60883507	      2.54445903	      2.90312184	     91.29513043	      1.59340062	     12.44961047	     -9.45282190	      0.00000000	      0.00000000	     46.75742796	    -11.79300365	     -0.47171709	     75.19772906	      1.31244796	    -19.54392661	    -14.50041366	      0.00000000	      0.00000000	    -58.59307240	     -2.98970231	      6.64580371	     89.54076574	     -4.16344544	     33.89510493	     21.29823014	     24.56172436	      0.00000000	      0.00000000	     89.06515336	     -0.82056159	     32.42322930	     22.54155835	     27.04157236	      0.00000000	      0.00000000
      0.01500000	     -7.51141305	     -3.44097141	     -5.21888743	      0.17854581	      1.04731833	     -0.31766840	      0.00000000	      0.50000000	      0.00000000	      0.25000000	     78.57931419	      2.51938419	      2.80403069	     91.34191813	      1.59421722	     12.32422219	     -9.52503603	      0.00000000	      0.00000000	     46.75428456	    -11.82710385	     -0.40144356	     75.30554969	      1.31432979	    -19.55667334	    -14.40936687	      0.00000000	      0.00000000	    -58.61793557	     -2.94737794	      6.73928454	     89.54642021	     -4.82266702	     37.12198653	     21.42530324	     23.85248467	      0.00000000	      0.00000000	     89.08742058	     -0.94807315	     33.93571768	     22.35056137	     27.18005685	      0.00000000	      0.00000000
      0.02000000	     -7.56642230	     -3.46275779	     -5.23850522	      0.17838166	      1.04737350	     -0.31753422	      0.00000000	      0.50000000	      0.00000000	      0.25000000	     78.67255510	      2.51613569	      2.76037116	     91.39125734	      1.59507835	     12.26810330	     -9.61927656	      0.00000000	      0.00000000	     46.83726821	    -11.84089780	     -0.36623843	     75.29159768	      1.31408628	    -19.68039300	    -14.47407157	      0.00000000	      0.00000000	    -58.54714430	     -2.95489369	      6.70015824	     89.54172861	     -4.66692224	     36.27119957	     21.19101417	     24.44194179	      0.00000000	      0.00000000	     89.03857362	     -0.81748955	     33.33903510	     22.14055826	     27.87942810	      0.00000000	      0.00000000
      0.02500000	     -7.56267102	     -3.48259578	     -5.23449187	      0.17839830	      1.04745366	     -0.31752444	      0.00000000	      0.50000000	      0.00000000	      0.25000000	     78.66546836	      2.51398241	      2.75215406	     91.38745811	      1.59501204	     12.25452570	     -9.56803321	      0.00000000	      0.00000000	     46.82833659	    -11.84764420	     -0.33969366	     75.28253989	      1.31392819	    -19.67097372	    -14.46387248	      0.00000000	      0.00000000	    -58.57678518	     -2.88142079	      6.78832441	     89.54286025	     -4.53586905	     35.47077119	     21.13369011	     25.05201213	      0.00000000	      0.00000000	     89.06654781	     -0.74323288	     32.75495327	     22.03111648	     28.59941846	      0.00000000	      0.00000000
